<svg viewBox="0 0 1024 768" width="1024" height="768" xmlns="http://www.w3.org/2000/svg"><rect width="1024" height="768" fill="transparent"></rect><path d="M56.113,-220.853C67.844,-215.534,69.115,-171.782,85.811,-158.163C102.506,-144.543,134.627,-161.056,153.886,-159.384C173.146,-157.713,179.544,-137.858,173.162,-115.22C166.78,-92.581,147.617,-67.159,131.628,-48.436C115.64,-29.712,102.826,-17.688,82.233,-10.576C61.641,-3.464,33.27,-1.265,20.067,0.526C6.864,2.316,8.83,3.698,13.756,8.293C18.682,12.888,26.568,20.695,37.807,37.794C49.046,54.893,63.637,81.283,77.166,125.204C90.694,169.125,103.158,230.577,93.136,236.503C83.113,242.428,50.603,192.827,24.233,200.359C-2.138,207.891,-22.37,272.557,-40.75,287.494C-59.131,302.43,-75.66,267.637,-70.439,214.02C-65.219,160.403,-38.248,87.962,-54.65,75.435C-71.052,62.907,-130.827,110.294,-131.41,108.866C-131.994,107.438,-73.385,57.196,-89.469,40.044C-105.553,22.892,-196.328,38.83,-227.924,35.528C-259.52,32.226,-231.936,9.685,-237.712,-16.868C-243.488,-43.42,-282.624,-73.983,-302.252,-105.911C-321.88,-137.839,-322.001,-171.132,-277.453,-163.376C-232.906,-155.619,-143.69,-106.814,-91.169,-74.865C-38.649,-42.917,-22.825,-27.825,-20.105,-42.925C-17.386,-58.025,-27.771,-103.317,-26.604,-127.853C-25.437,-152.388,-12.719,-156.169,4.736,-174.615C22.191,-193.061,44.382,-226.173,56.113,-220.853" fill="#000C59" stroke="#f000dc" stroke-width="0" transform="translate(512, 384)"></path></svg>